<svg width="92" height="92" viewBox="0 0 92 92" fill="none" xmlns="http://www.w3.org/2000/svg">
<mask id="path-1-outside-1" maskUnits="userSpaceOnUse" x="0" y="0" width="92" height="92" fill="black">
<rect fill="white" width="92" height="92"/>
<path d="M87.3817 58.9769C84.7817 54.8769 76.5817 43.3769 76.0817 42.6769C75.2817 41.4769 74.0817 40.6769 72.6817 40.4769C71.1817 40.1769 69.5817 40.5769 68.2817 41.4769C65.6817 43.2769 64.8817 46.7769 66.5817 49.2769L68.4817 52.9769L58.7817 49.0769L48.2817 27.3769L54.1817 30.3769C57.3817 32.3769 61.4817 31.3769 63.4817 28.1769C64.4817 26.6769 64.7817 24.7769 64.3817 23.0769C63.9817 21.2769 62.8817 19.7769 61.3817 18.7769C60.4817 18.1769 44.9817 7.77686 39.4817 4.37686C32.5817 0.176855 23.7817 -0.123145 15.9817 3.57685C9.78174 6.47686 5.08174 11.5769 2.68174 17.8769C0.281744 24.1769 0.481745 31.0769 3.08174 37.2769L15.4817 63.8769C16.6817 66.3769 19.0817 67.7769 21.6817 67.7769C22.6817 67.7769 23.5817 67.5769 24.5817 67.1769C25.8817 66.5769 26.8817 65.6769 27.4817 64.5769L29.0817 67.9769C29.8817 69.6768 31.1817 70.8769 32.9817 71.4769C33.7817 71.7769 34.4817 71.8769 35.2817 71.8769C36.1817 71.8769 36.9817 71.6769 37.8817 71.3769L39.0817 71.7769C38.3817 72.3769 37.7817 73.0769 37.3817 73.9769C36.6817 75.4769 36.6817 76.9769 37.2817 78.4769C37.8817 79.8769 38.8817 80.8769 40.2817 81.3769L61.1817 89.5769C63.3817 90.3769 65.6817 90.7769 67.8817 90.7769C76.1817 90.7769 84.2817 85.7769 87.9817 77.6769C90.9817 71.2769 90.6817 64.2769 87.3817 58.9769ZM33.9817 68.5769C33.0817 68.2769 32.2817 67.5769 31.8817 66.6769L27.9817 58.3769C27.9817 58.2769 27.8817 58.1769 27.8817 58.1769L19.5817 40.5769C19.1817 39.7769 18.2817 39.4769 17.5817 39.8769C16.7817 40.2769 16.4817 41.1769 16.8817 41.8769L25.1817 59.4769C26.0817 61.3769 25.2817 63.5769 23.3817 64.4769C21.4817 65.3769 19.2817 64.5769 18.3817 62.6769L5.88174 36.0769C0.981745 24.6769 5.98175 11.6769 17.1817 6.37685C24.0817 3.17685 31.7817 3.37685 37.8817 7.07685C43.3817 10.3769 59.5817 21.2769 59.6817 21.3769C60.5817 21.8769 61.0817 22.7769 61.3817 23.7769C61.5817 24.7769 61.3817 25.7769 60.8817 26.6769C60.3817 27.5769 59.4817 28.0769 58.4817 28.3769C57.4817 28.5769 56.4817 28.3769 55.5817 27.8769C55.5817 27.8769 55.4817 27.8769 55.4817 27.7769L44.5817 22.1769C44.0817 21.8769 43.4817 21.9769 42.9817 22.2769C37.4817 26.1769 28.5817 25.4769 23.9817 20.8769C23.3817 20.2769 22.3817 20.2769 21.7817 20.8769C21.1817 21.4769 21.1817 22.4769 21.7817 23.0769C27.1817 28.4769 36.9817 29.4769 43.7817 25.4769L54.2817 47.4769L50.7817 45.7769C49.0817 45.0769 47.2817 45.3769 45.6817 46.2769L40.9817 36.2769C40.5817 35.4769 39.6817 35.1769 38.9817 35.5769C38.1817 35.9769 37.8817 36.8769 38.2817 37.5769L43.4817 48.5769C43.3817 48.6769 43.3817 48.7769 43.2817 48.9769C42.8817 49.8769 42.6817 50.7769 42.7817 51.7769L41.2817 51.1769C39.6817 50.5769 37.9817 50.6769 36.4817 51.4769L33.1817 44.4769C32.7817 43.6769 31.8817 43.3769 31.1817 43.7769C30.3817 44.1769 30.0817 45.0769 30.4817 45.7769L34.1817 53.6769C34.0817 53.8769 33.9817 54.0769 33.8817 54.3769C33.1817 55.8769 33.1817 57.3769 33.7817 58.8769C34.2817 59.9769 35.0817 60.8769 36.0817 61.4769C35.3817 62.0769 34.7817 62.7769 34.3817 63.6769C33.6817 65.1769 33.6817 66.6769 34.2817 68.1769C34.3817 68.3769 34.4817 68.5769 34.5817 68.7769C34.2817 68.6769 34.1817 68.5769 33.9817 68.5769ZM85.2817 76.3769C81.1817 85.2769 71.0817 89.8769 62.2817 86.7769L41.3817 78.5769C40.7817 78.3769 40.3817 77.8769 40.0817 77.2769C39.7817 76.6769 39.8817 75.8769 40.1817 75.1769C40.7817 73.7769 42.4817 73.0769 43.7817 73.5769L57.6817 79.0769C58.4817 79.3769 59.3817 78.9769 59.6817 78.1769C59.9817 77.3769 59.5817 76.4769 58.7817 76.1769L44.8817 70.7769L44.6817 70.6769C44.6817 70.6769 37.8817 67.9769 37.6817 67.8769C37.2817 67.6769 37.0817 67.2769 36.8817 66.8769C36.5817 66.2769 36.6817 65.4769 36.9817 64.7769C37.2817 63.9769 37.9817 63.4769 38.6817 63.1769C39.2817 62.9769 54.4817 68.6769 54.4817 68.6769C55.2817 68.9769 56.1817 68.5769 56.4817 67.7769C56.7817 66.9769 56.3817 66.0769 55.5817 65.7769L37.6817 58.7769C37.0817 58.5769 36.6817 58.0769 36.3817 57.4769C36.0817 56.8769 36.1817 56.0769 36.4817 55.3769C36.7817 54.7769 37.1817 54.3769 37.6817 53.9769C38.3817 53.5769 39.2817 53.3769 40.0817 53.6769L60.8817 61.8769C61.6817 62.1769 62.5817 61.7769 62.8817 60.9769C63.1817 60.1769 62.7817 59.2769 61.9817 58.9769L47.3817 53.1769C46.6817 52.8769 46.1817 52.3769 45.9817 51.7769C45.6817 51.1769 45.7817 50.4769 45.9817 49.8769C46.1817 49.3769 46.5817 48.9769 46.9817 48.6769C47.7817 48.0769 48.7817 47.8769 49.5817 48.2769L71.0817 57.2769C71.6817 57.4769 72.3817 57.3769 72.7817 56.8769C73.1817 56.3769 73.2817 55.6769 72.9817 55.1769C72.9817 55.1769 68.9817 47.6769 68.9817 47.5769C68.1817 46.3769 68.5817 44.7769 69.8817 43.8769C70.4817 43.4769 71.2817 43.2769 71.9817 43.3769C72.5817 43.4769 73.0817 43.8769 73.4817 44.3769C73.5817 44.4769 82.0817 56.4769 84.6817 60.5769C87.5817 64.9769 87.7817 70.8769 85.2817 76.3769Z"/>
</mask>
<path d="M87.3817 58.9769C84.7817 54.8769 76.5817 43.3769 76.0817 42.6769C75.2817 41.4769 74.0817 40.6769 72.6817 40.4769C71.1817 40.1769 69.5817 40.5769 68.2817 41.4769C65.6817 43.2769 64.8817 46.7769 66.5817 49.2769L68.4817 52.9769L58.7817 49.0769L48.2817 27.3769L54.1817 30.3769C57.3817 32.3769 61.4817 31.3769 63.4817 28.1769C64.4817 26.6769 64.7817 24.7769 64.3817 23.0769C63.9817 21.2769 62.8817 19.7769 61.3817 18.7769C60.4817 18.1769 44.9817 7.77686 39.4817 4.37686C32.5817 0.176855 23.7817 -0.123145 15.9817 3.57685C9.78174 6.47686 5.08174 11.5769 2.68174 17.8769C0.281744 24.1769 0.481745 31.0769 3.08174 37.2769L15.4817 63.8769C16.6817 66.3769 19.0817 67.7769 21.6817 67.7769C22.6817 67.7769 23.5817 67.5769 24.5817 67.1769C25.8817 66.5769 26.8817 65.6769 27.4817 64.5769L29.0817 67.9769C29.8817 69.6768 31.1817 70.8769 32.9817 71.4769C33.7817 71.7769 34.4817 71.8769 35.2817 71.8769C36.1817 71.8769 36.9817 71.6769 37.8817 71.3769L39.0817 71.7769C38.3817 72.3769 37.7817 73.0769 37.3817 73.9769C36.6817 75.4769 36.6817 76.9769 37.2817 78.4769C37.8817 79.8769 38.8817 80.8769 40.2817 81.3769L61.1817 89.5769C63.3817 90.3769 65.6817 90.7769 67.8817 90.7769C76.1817 90.7769 84.2817 85.7769 87.9817 77.6769C90.9817 71.2769 90.6817 64.2769 87.3817 58.9769ZM33.9817 68.5769C33.0817 68.2769 32.2817 67.5769 31.8817 66.6769L27.9817 58.3769C27.9817 58.2769 27.8817 58.1769 27.8817 58.1769L19.5817 40.5769C19.1817 39.7769 18.2817 39.4769 17.5817 39.8769C16.7817 40.2769 16.4817 41.1769 16.8817 41.8769L25.1817 59.4769C26.0817 61.3769 25.2817 63.5769 23.3817 64.4769C21.4817 65.3769 19.2817 64.5769 18.3817 62.6769L5.88174 36.0769C0.981745 24.6769 5.98175 11.6769 17.1817 6.37685C24.0817 3.17685 31.7817 3.37685 37.8817 7.07685C43.3817 10.3769 59.5817 21.2769 59.6817 21.3769C60.5817 21.8769 61.0817 22.7769 61.3817 23.7769C61.5817 24.7769 61.3817 25.7769 60.8817 26.6769C60.3817 27.5769 59.4817 28.0769 58.4817 28.3769C57.4817 28.5769 56.4817 28.3769 55.5817 27.8769C55.5817 27.8769 55.4817 27.8769 55.4817 27.7769L44.5817 22.1769C44.0817 21.8769 43.4817 21.9769 42.9817 22.2769C37.4817 26.1769 28.5817 25.4769 23.9817 20.8769C23.3817 20.2769 22.3817 20.2769 21.7817 20.8769C21.1817 21.4769 21.1817 22.4769 21.7817 23.0769C27.1817 28.4769 36.9817 29.4769 43.7817 25.4769L54.2817 47.4769L50.7817 45.7769C49.0817 45.0769 47.2817 45.3769 45.6817 46.2769L40.9817 36.2769C40.5817 35.4769 39.6817 35.1769 38.9817 35.5769C38.1817 35.9769 37.8817 36.8769 38.2817 37.5769L43.4817 48.5769C43.3817 48.6769 43.3817 48.7769 43.2817 48.9769C42.8817 49.8769 42.6817 50.7769 42.7817 51.7769L41.2817 51.1769C39.6817 50.5769 37.9817 50.6769 36.4817 51.4769L33.1817 44.4769C32.7817 43.6769 31.8817 43.3769 31.1817 43.7769C30.3817 44.1769 30.0817 45.0769 30.4817 45.7769L34.1817 53.6769C34.0817 53.8769 33.9817 54.0769 33.8817 54.3769C33.1817 55.8769 33.1817 57.3769 33.7817 58.8769C34.2817 59.9769 35.0817 60.8769 36.0817 61.4769C35.3817 62.0769 34.7817 62.7769 34.3817 63.6769C33.6817 65.1769 33.6817 66.6769 34.2817 68.1769C34.3817 68.3769 34.4817 68.5769 34.5817 68.7769C34.2817 68.6769 34.1817 68.5769 33.9817 68.5769ZM85.2817 76.3769C81.1817 85.2769 71.0817 89.8769 62.2817 86.7769L41.3817 78.5769C40.7817 78.3769 40.3817 77.8769 40.0817 77.2769C39.7817 76.6769 39.8817 75.8769 40.1817 75.1769C40.7817 73.7769 42.4817 73.0769 43.7817 73.5769L57.6817 79.0769C58.4817 79.3769 59.3817 78.9769 59.6817 78.1769C59.9817 77.3769 59.5817 76.4769 58.7817 76.1769L44.8817 70.7769L44.6817 70.6769C44.6817 70.6769 37.8817 67.9769 37.6817 67.8769C37.2817 67.6769 37.0817 67.2769 36.8817 66.8769C36.5817 66.2769 36.6817 65.4769 36.9817 64.7769C37.2817 63.9769 37.9817 63.4769 38.6817 63.1769C39.2817 62.9769 54.4817 68.6769 54.4817 68.6769C55.2817 68.9769 56.1817 68.5769 56.4817 67.7769C56.7817 66.9769 56.3817 66.0769 55.5817 65.7769L37.6817 58.7769C37.0817 58.5769 36.6817 58.0769 36.3817 57.4769C36.0817 56.8769 36.1817 56.0769 36.4817 55.3769C36.7817 54.7769 37.1817 54.3769 37.6817 53.9769C38.3817 53.5769 39.2817 53.3769 40.0817 53.6769L60.8817 61.8769C61.6817 62.1769 62.5817 61.7769 62.8817 60.9769C63.1817 60.1769 62.7817 59.2769 61.9817 58.9769L47.3817 53.1769C46.6817 52.8769 46.1817 52.3769 45.9817 51.7769C45.6817 51.1769 45.7817 50.4769 45.9817 49.8769C46.1817 49.3769 46.5817 48.9769 46.9817 48.6769C47.7817 48.0769 48.7817 47.8769 49.5817 48.2769L71.0817 57.2769C71.6817 57.4769 72.3817 57.3769 72.7817 56.8769C73.1817 56.3769 73.2817 55.6769 72.9817 55.1769C72.9817 55.1769 68.9817 47.6769 68.9817 47.5769C68.1817 46.3769 68.5817 44.7769 69.8817 43.8769C70.4817 43.4769 71.2817 43.2769 71.9817 43.3769C72.5817 43.4769 73.0817 43.8769 73.4817 44.3769C73.5817 44.4769 82.0817 56.4769 84.6817 60.5769C87.5817 64.9769 87.7817 70.8769 85.2817 76.3769Z" fill="#3498DB"/>
<path d="M87.3817 58.9769C84.7817 54.8769 76.5817 43.3769 76.0817 42.6769C75.2817 41.4769 74.0817 40.6769 72.6817 40.4769C71.1817 40.1769 69.5817 40.5769 68.2817 41.4769C65.6817 43.2769 64.8817 46.7769 66.5817 49.2769L68.4817 52.9769L58.7817 49.0769L48.2817 27.3769L54.1817 30.3769C57.3817 32.3769 61.4817 31.3769 63.4817 28.1769C64.4817 26.6769 64.7817 24.7769 64.3817 23.0769C63.9817 21.2769 62.8817 19.7769 61.3817 18.7769C60.4817 18.1769 44.9817 7.77686 39.4817 4.37686C32.5817 0.176855 23.7817 -0.123145 15.9817 3.57685C9.78174 6.47686 5.08174 11.5769 2.68174 17.8769C0.281744 24.1769 0.481745 31.0769 3.08174 37.2769L15.4817 63.8769C16.6817 66.3769 19.0817 67.7769 21.6817 67.7769C22.6817 67.7769 23.5817 67.5769 24.5817 67.1769C25.8817 66.5769 26.8817 65.6769 27.4817 64.5769L29.0817 67.9769C29.8817 69.6768 31.1817 70.8769 32.9817 71.4769C33.7817 71.7769 34.4817 71.8769 35.2817 71.8769C36.1817 71.8769 36.9817 71.6769 37.8817 71.3769L39.0817 71.7769C38.3817 72.3769 37.7817 73.0769 37.3817 73.9769C36.6817 75.4769 36.6817 76.9769 37.2817 78.4769C37.8817 79.8769 38.8817 80.8769 40.2817 81.3769L61.1817 89.5769C63.3817 90.3769 65.6817 90.7769 67.8817 90.7769C76.1817 90.7769 84.2817 85.7769 87.9817 77.6769C90.9817 71.2769 90.6817 64.2769 87.3817 58.9769ZM33.9817 68.5769C33.0817 68.2769 32.2817 67.5769 31.8817 66.6769L27.9817 58.3769C27.9817 58.2769 27.8817 58.1769 27.8817 58.1769L19.5817 40.5769C19.1817 39.7769 18.2817 39.4769 17.5817 39.8769C16.7817 40.2769 16.4817 41.1769 16.8817 41.8769L25.1817 59.4769C26.0817 61.3769 25.2817 63.5769 23.3817 64.4769C21.4817 65.3769 19.2817 64.5769 18.3817 62.6769L5.88174 36.0769C0.981745 24.6769 5.98175 11.6769 17.1817 6.37685C24.0817 3.17685 31.7817 3.37685 37.8817 7.07685C43.3817 10.3769 59.5817 21.2769 59.6817 21.3769C60.5817 21.8769 61.0817 22.7769 61.3817 23.7769C61.5817 24.7769 61.3817 25.7769 60.8817 26.6769C60.3817 27.5769 59.4817 28.0769 58.4817 28.3769C57.4817 28.5769 56.4817 28.3769 55.5817 27.8769C55.5817 27.8769 55.4817 27.8769 55.4817 27.7769L44.5817 22.1769C44.0817 21.8769 43.4817 21.9769 42.9817 22.2769C37.4817 26.1769 28.5817 25.4769 23.9817 20.8769C23.3817 20.2769 22.3817 20.2769 21.7817 20.8769C21.1817 21.4769 21.1817 22.4769 21.7817 23.0769C27.1817 28.4769 36.9817 29.4769 43.7817 25.4769L54.2817 47.4769L50.7817 45.7769C49.0817 45.0769 47.2817 45.3769 45.6817 46.2769L40.9817 36.2769C40.5817 35.4769 39.6817 35.1769 38.9817 35.5769C38.1817 35.9769 37.8817 36.8769 38.2817 37.5769L43.4817 48.5769C43.3817 48.6769 43.3817 48.7769 43.2817 48.9769C42.8817 49.8769 42.6817 50.7769 42.7817 51.7769L41.2817 51.1769C39.6817 50.5769 37.9817 50.6769 36.4817 51.4769L33.1817 44.4769C32.7817 43.6769 31.8817 43.3769 31.1817 43.7769C30.3817 44.1769 30.0817 45.0769 30.4817 45.7769L34.1817 53.6769C34.0817 53.8769 33.9817 54.0769 33.8817 54.3769C33.1817 55.8769 33.1817 57.3769 33.7817 58.8769C34.2817 59.9769 35.0817 60.8769 36.0817 61.4769C35.3817 62.0769 34.7817 62.7769 34.3817 63.6769C33.6817 65.1769 33.6817 66.6769 34.2817 68.1769C34.3817 68.3769 34.4817 68.5769 34.5817 68.7769C34.2817 68.6769 34.1817 68.5769 33.9817 68.5769ZM85.2817 76.3769C81.1817 85.2769 71.0817 89.8769 62.2817 86.7769L41.3817 78.5769C40.7817 78.3769 40.3817 77.8769 40.0817 77.2769C39.7817 76.6769 39.8817 75.8769 40.1817 75.1769C40.7817 73.7769 42.4817 73.0769 43.7817 73.5769L57.6817 79.0769C58.4817 79.3769 59.3817 78.9769 59.6817 78.1769C59.9817 77.3769 59.5817 76.4769 58.7817 76.1769L44.8817 70.7769L44.6817 70.6769C44.6817 70.6769 37.8817 67.9769 37.6817 67.8769C37.2817 67.6769 37.0817 67.2769 36.8817 66.8769C36.5817 66.2769 36.6817 65.4769 36.9817 64.7769C37.2817 63.9769 37.9817 63.4769 38.6817 63.1769C39.2817 62.9769 54.4817 68.6769 54.4817 68.6769C55.2817 68.9769 56.1817 68.5769 56.4817 67.7769C56.7817 66.9769 56.3817 66.0769 55.5817 65.7769L37.6817 58.7769C37.0817 58.5769 36.6817 58.0769 36.3817 57.4769C36.0817 56.8769 36.1817 56.0769 36.4817 55.3769C36.7817 54.7769 37.1817 54.3769 37.6817 53.9769C38.3817 53.5769 39.2817 53.3769 40.0817 53.6769L60.8817 61.8769C61.6817 62.1769 62.5817 61.7769 62.8817 60.9769C63.1817 60.1769 62.7817 59.2769 61.9817 58.9769L47.3817 53.1769C46.6817 52.8769 46.1817 52.3769 45.9817 51.7769C45.6817 51.1769 45.7817 50.4769 45.9817 49.8769C46.1817 49.3769 46.5817 48.9769 46.9817 48.6769C47.7817 48.0769 48.7817 47.8769 49.5817 48.2769L71.0817 57.2769C71.6817 57.4769 72.3817 57.3769 72.7817 56.8769C73.1817 56.3769 73.2817 55.6769 72.9817 55.1769C72.9817 55.1769 68.9817 47.6769 68.9817 47.5769C68.1817 46.3769 68.5817 44.7769 69.8817 43.8769C70.4817 43.4769 71.2817 43.2769 71.9817 43.3769C72.5817 43.4769 73.0817 43.8769 73.4817 44.3769C73.5817 44.4769 82.0817 56.4769 84.6817 60.5769C87.5817 64.9769 87.7817 70.8769 85.2817 76.3769Z" stroke="#3498DB" stroke-width="2" mask="url(#path-1-outside-1)"/>
</svg>
