<svg width="24" height="24" xmlns="http://www.w3.org/2000/svg">

 <g>
  <title>background</title>
  <rect fill="none" id="canvas_background" height="402" width="582" y="-1" x="-1"/>
 </g>
 <g>
  <title>Layer 1</title>
  <path fill="#ffffff" id="svg_2" d="m23.3,4l-4.3,0l0,-3.2c0,-0.5 -0.1,-0.8 -0.7,-0.8l-12,0c-0.5,0 -1.3,0.3 -1.3,0.8l0,3.2l-3.7,0c-0.5,0 -1.3,0.3 -1.3,0.8l0,18c0,0.6 0.8,1.2 1.3,1.2l22,0c0.6,0 0.7,-0.6 0.7,-1.2l0,-18c0,-0.5 -0.1,-0.8 -0.7,-0.8zm-16.3,-2l10,0l0,2l-10,0l0,-2zm15,20l-20,0l0,-16l20,0l0,16z"/>
  <path fill="#ffffff" id="svg_3" d="m8.3,16l1.7,0l0,1.8c0,0.6 0.8,1.2 1.3,1.2l2,0c0.6,0 0.7,-0.6 0.7,-1.2l0,-1.8l2.3,0c0.6,0 0.7,-0.6 0.7,-1.2l0,-2c0,-0.6 -0.1,-0.8 -0.7,-0.8l-2.3,0l0,-2.2c0,-0.5 -0.1,-0.8 -0.7,-0.8l-2,0c-0.5,0 -1.3,0.3 -1.3,0.8l0,2.2l-1.7,0c-0.5,0 -1.3,0.3 -1.3,0.8l0,2c0,0.6 0.8,1.2 1.3,1.2zm-0.3,-3l3,0l0,-3l2,0l0,3l3,0l0,2l-3,0l0,3l-2,0l0,-3l-3,0l0,-2z"/>
 </g>
</svg>