<svg width="32" height="32" xmlns="http://www.w3.org/2000/svg">

 <title/>
 <g>
  <title>background</title>
  <rect fill="none" id="canvas_background" height="402" width="582" y="-1" x="-1"/>
 </g>
 <g>
  <title>Layer 1</title>
  <path fill="#ffffff" id="svg_1" d="m22.7,28l-13.4,0a6.25,6.25 0 0 1 -5.47,-3.15a6.15,6.15 0 0 1 0,-6.22l6.73,-11.51a6.3,6.3 0 0 1 10.88,0l6.71,11.51l0,0a6.15,6.15 0 0 1 0,6.22a6.25,6.25 0 0 1 -5.45,3.15zm-6.7,-22a4.24,4.24 0 0 0 -3.71,2.12l-6.71,11.52a4.15,4.15 0 0 0 0,4.21a4.23,4.23 0 0 0 3.72,2.15l13.4,0a4.23,4.23 0 0 0 3.73,-2.15a4.15,4.15 0 0 0 0,-4.21l-6.72,-11.52a4.24,4.24 0 0 0 -3.71,-2.12z"/>
  <path fill="none" id="svg_2" d="m16,12a0.54,0.54 0 0 0 -0.44,0.22a0.52,0.52 0 0 0 -0.1,0.48l0.54,2.18l0.54,-2.18a0.52,0.52 0 0 0 -0.1,-0.48a0.54,0.54 0 0 0 -0.44,-0.22z" class="cls-1"/>
  <path fill="#ffffff" id="svg_3" d="m18,11a2.56,2.56 0 0 0 -4,0a2.5,2.5 0 0 0 -0.46,2.19l1.46,6.05a1,1 0 0 0 1.94,0l1.51,-6.06a2.5,2.5 0 0 0 -0.45,-2.18zm-1.46,1.7l-0.54,2.18l-0.54,-2.18a0.52,0.52 0 0 1 0.1,-0.48a0.55,0.55 0 0 1 0.88,0a0.52,0.52 0 0 1 0.1,0.48z"/>
  <circle fill="#ffffff" id="svg_4" r="1.5" cy="22.5" cx="16"/>
 </g>
</svg>