<svg width="16" height="16" xmlns="http://www.w3.org/2000/svg">

 <g>
  <title>background</title>
  <rect fill="none" id="canvas_background" height="402" width="582" y="-1" x="-1"/>
 </g>
 <g>
  <title>Layer 1</title>
  <path fill="#ffffff" id="svg_1" d="m8,0c-3.313,0 -6,2.687 -6,6c0,3.854 4.321,8.663 5,9.398c0.281,0.305 0.516,0.602 1,0.602s0.719,-0.297 1,-0.602c0.679,-0.735 5,-5.544 5,-9.398c0,-3.313 -2.687,-6 -6,-6zm0,10c-2.209,0 -4,-1.791 -4,-4s1.791,-4 4,-4s4,1.791 4,4s-1.791,4 -4,4zm0,-6c-1.104,0 -2,0.896 -2,2s0.896,2 2,2s2,-0.896 2,-2s-0.896,-2 -2,-2z"/>
 </g>
</svg>